<svg width="146" height="188" viewBox="0 0 146 188" fill="none" xmlns="http://www.w3.org/2000/svg">
<g filter="url(#filter0_d)">
<rect x="7" y="7" width="132" height="174" rx="4" fill="white"/>
</g>
<path d="M50.6289 110H46.4512V82.3057L38.0732 85.3828V81.6094L49.9775 77.1396H50.6289V110ZM83.3096 96.0518C83.3096 100.918 82.4785 104.535 80.8164 106.9C79.1543 109.266 76.5563 110.449 73.0225 110.449C69.5335 110.449 66.9505 109.296 65.2734 106.99C63.5964 104.669 62.7279 101.21 62.668 96.6133V91.0654C62.668 86.2588 63.499 82.6875 65.1611 80.3516C66.8232 78.0156 69.4287 76.8477 72.9775 76.8477C76.4964 76.8477 79.0869 77.9782 80.749 80.2393C82.4111 82.4854 83.2646 85.9593 83.3096 90.6611V96.0518ZM79.1543 90.3691C79.1543 86.8503 78.6602 84.2897 77.6719 82.6875C76.6836 81.0703 75.1188 80.2617 72.9775 80.2617C70.8512 80.2617 69.3014 81.0628 68.3281 82.665C67.3548 84.2673 66.8532 86.7305 66.8232 90.0547V96.7031C66.8232 100.237 67.3324 102.85 68.3506 104.542C69.3838 106.219 70.9411 107.058 73.0225 107.058C75.0739 107.058 76.5938 106.264 77.582 104.677C78.5853 103.09 79.1094 100.589 79.1543 97.1748V90.3691ZM109.14 96.0518C109.14 100.918 108.309 104.535 106.646 106.9C104.984 109.266 102.386 110.449 98.8525 110.449C95.3636 110.449 92.7806 109.296 91.1035 106.99C89.4264 104.669 88.5579 101.21 88.498 96.6133V91.0654C88.498 86.2588 89.3291 82.6875 90.9912 80.3516C92.6533 78.0156 95.2588 76.8477 98.8076 76.8477C102.326 76.8477 104.917 77.9782 106.579 80.2393C108.241 82.4854 109.095 85.9593 109.14 90.6611V96.0518ZM104.984 90.3691C104.984 86.8503 104.49 84.2897 103.502 82.6875C102.514 81.0703 100.949 80.2617 98.8076 80.2617C96.6813 80.2617 95.1315 81.0628 94.1582 82.665C93.1849 84.2673 92.6833 86.7305 92.6533 90.0547V96.7031C92.6533 100.237 93.1624 102.85 94.1807 104.542C95.2139 106.219 96.7712 107.058 98.8525 107.058C100.904 107.058 102.424 106.264 103.412 104.677C104.415 103.09 104.939 100.589 104.984 97.1748V90.3691Z" fill="#131B23"/>
<defs>
<filter id="filter0_d" x="0" y="0" width="146" height="188" filterUnits="userSpaceOnUse" color-interpolation-filters="sRGB">
<feFlood flood-opacity="0" result="BackgroundImageFix"/>
<feColorMatrix in="SourceAlpha" type="matrix" values="0 0 0 0 0 0 0 0 0 0 0 0 0 0 0 0 0 0 127 0"/>
<feMorphology radius="1" operator="dilate" in="SourceAlpha" result="effect1_dropShadow"/>
<feOffset/>
<feGaussianBlur stdDeviation="3"/>
<feColorMatrix type="matrix" values="0 0 0 0 0.00392157 0 0 0 0 0.00392157 0 0 0 0 0.00392157 0 0 0 0.05 0"/>
<feBlend mode="normal" in2="BackgroundImageFix" result="effect1_dropShadow"/>
<feBlend mode="normal" in="SourceGraphic" in2="effect1_dropShadow" result="shape"/>
</filter>
</defs>
</svg>
