<svg width="146" height="188" viewBox="0 0 146 188" fill="none" xmlns="http://www.w3.org/2000/svg">
<g filter="url(#filter0_d)">
<rect x="7" y="7" width="132" height="174" rx="4" fill="white"/>
</g>
<path d="M63.5439 110H59.3662V82.3057L50.9883 85.3828V81.6094L62.8926 77.1396H63.5439V110ZM81.7598 91.627H84.8818C86.8434 91.597 88.3857 91.0804 89.5088 90.0771C90.6318 89.0739 91.1934 87.7188 91.1934 86.0117C91.1934 82.1784 89.2842 80.2617 85.4658 80.2617C83.6689 80.2617 82.2314 80.7783 81.1533 81.8115C80.0902 82.8298 79.5586 84.1849 79.5586 85.877H75.4033C75.4033 83.2865 76.3467 81.1377 78.2334 79.4307C80.1351 77.7087 82.5459 76.8477 85.4658 76.8477C88.5505 76.8477 90.9688 77.6637 92.7207 79.2959C94.4727 80.9281 95.3486 83.1966 95.3486 86.1016C95.3486 87.5241 94.8844 88.9017 93.9561 90.2344C93.0426 91.5671 91.7923 92.5628 90.2051 93.2217C92.002 93.7907 93.387 94.734 94.3604 96.0518C95.3486 97.3695 95.8428 98.9792 95.8428 100.881C95.8428 103.816 94.8844 106.144 92.9678 107.866C91.0511 109.588 88.5579 110.449 85.4883 110.449C82.4186 110.449 79.918 109.618 77.9863 107.956C76.0697 106.294 75.1113 104.1 75.1113 101.375H79.2891C79.2891 103.097 79.8506 104.475 80.9736 105.508C82.0967 106.541 83.6016 107.058 85.4883 107.058C87.4948 107.058 89.0296 106.534 90.0928 105.485C91.1559 104.437 91.6875 102.932 91.6875 100.971C91.6875 99.069 91.1035 97.609 89.9355 96.5908C88.7676 95.5726 87.083 95.0485 84.8818 95.0186H81.7598V91.627Z" fill="#131B23"/>
<defs>
<filter id="filter0_d" x="0" y="0" width="146" height="188" filterUnits="userSpaceOnUse" color-interpolation-filters="sRGB">
<feFlood flood-opacity="0" result="BackgroundImageFix"/>
<feColorMatrix in="SourceAlpha" type="matrix" values="0 0 0 0 0 0 0 0 0 0 0 0 0 0 0 0 0 0 127 0"/>
<feMorphology radius="1" operator="dilate" in="SourceAlpha" result="effect1_dropShadow"/>
<feOffset/>
<feGaussianBlur stdDeviation="3"/>
<feColorMatrix type="matrix" values="0 0 0 0 0.00392157 0 0 0 0 0.00392157 0 0 0 0 0.00392157 0 0 0 0.05 0"/>
<feBlend mode="normal" in2="BackgroundImageFix" result="effect1_dropShadow"/>
<feBlend mode="normal" in="SourceGraphic" in2="effect1_dropShadow" result="shape"/>
</filter>
</defs>
</svg>
