<svg width="146" height="188" viewBox="0 0 146 188" fill="none" xmlns="http://www.w3.org/2000/svg">
<g filter="url(#filter0_d)">
<rect x="7" y="7" width="132" height="174" rx="4" fill="white"/>
</g>
<path d="M83.3096 96.0518C83.3096 100.918 82.4785 104.535 80.8164 106.9C79.1543 109.266 76.5563 110.449 73.0225 110.449C69.5335 110.449 66.9505 109.296 65.2734 106.99C63.5964 104.669 62.7279 101.21 62.668 96.6133V91.0654C62.668 86.2588 63.499 82.6875 65.1611 80.3516C66.8232 78.0156 69.4287 76.8477 72.9775 76.8477C76.4964 76.8477 79.0869 77.9782 80.749 80.2393C82.4111 82.4854 83.2646 85.9593 83.3096 90.6611V96.0518ZM79.1543 90.3691C79.1543 86.8503 78.6602 84.2897 77.6719 82.6875C76.6836 81.0703 75.1188 80.2617 72.9775 80.2617C70.8512 80.2617 69.3014 81.0628 68.3281 82.665C67.3548 84.2673 66.8532 86.7305 66.8232 90.0547V96.7031C66.8232 100.237 67.3324 102.85 68.3506 104.542C69.3838 106.219 70.9411 107.058 73.0225 107.058C75.0739 107.058 76.5938 106.264 77.582 104.677C78.5853 103.09 79.1094 100.589 79.1543 97.1748V90.3691Z" fill="#131B23"/>
<defs>
<filter id="filter0_d" x="0" y="0" width="146" height="188" filterUnits="userSpaceOnUse" color-interpolation-filters="sRGB">
<feFlood flood-opacity="0" result="BackgroundImageFix"/>
<feColorMatrix in="SourceAlpha" type="matrix" values="0 0 0 0 0 0 0 0 0 0 0 0 0 0 0 0 0 0 127 0"/>
<feMorphology radius="1" operator="dilate" in="SourceAlpha" result="effect1_dropShadow"/>
<feOffset/>
<feGaussianBlur stdDeviation="3"/>
<feColorMatrix type="matrix" values="0 0 0 0 0.00392157 0 0 0 0 0.00392157 0 0 0 0 0.00392157 0 0 0 0.05 0"/>
<feBlend mode="normal" in2="BackgroundImageFix" result="effect1_dropShadow"/>
<feBlend mode="normal" in="SourceGraphic" in2="effect1_dropShadow" result="shape"/>
</filter>
</defs>
</svg>
