<svg width="146" height="188" viewBox="0 0 146 188" fill="none" xmlns="http://www.w3.org/2000/svg">
<g filter="url(#filter0_d)">
<rect x="7" y="7" width="132" height="174" rx="4" fill="white"/>
</g>
<path d="M71.3154 110H49.8877V107.013L61.208 94.4346C62.8851 92.5329 64.0381 90.9906 64.667 89.8076C65.3109 88.6097 65.6328 87.3743 65.6328 86.1016C65.6328 84.3945 65.1162 82.9945 64.083 81.9014C63.0498 80.8083 61.6722 80.2617 59.9502 80.2617C57.8838 80.2617 56.2741 80.8532 55.1211 82.0361C53.9831 83.2041 53.4141 84.8363 53.4141 86.9326H49.2588C49.2588 83.9229 50.2246 81.4896 52.1562 79.6328C54.1029 77.776 56.7008 76.8477 59.9502 76.8477C62.9899 76.8477 65.3932 77.6488 67.1602 79.251C68.9271 80.8382 69.8105 82.957 69.8105 85.6074C69.8105 88.8268 67.7591 92.6602 63.6562 97.1074L54.8965 106.608H71.3154V110ZM96.2246 96.0518C96.2246 100.918 95.3936 104.535 93.7314 106.9C92.0693 109.266 89.4714 110.449 85.9375 110.449C82.4486 110.449 79.8656 109.296 78.1885 106.99C76.5114 104.669 75.6429 101.21 75.583 96.6133V91.0654C75.583 86.2588 76.4141 82.6875 78.0762 80.3516C79.7383 78.0156 82.3438 76.8477 85.8926 76.8477C89.4115 76.8477 92.002 77.9782 93.6641 80.2393C95.3262 82.4854 96.1797 85.9593 96.2246 90.6611V96.0518ZM92.0693 90.3691C92.0693 86.8503 91.5752 84.2897 90.5869 82.6875C89.5986 81.0703 88.0339 80.2617 85.8926 80.2617C83.7663 80.2617 82.2165 81.0628 81.2432 82.665C80.2699 84.2673 79.7682 86.7305 79.7383 90.0547V96.7031C79.7383 100.237 80.2474 102.85 81.2656 104.542C82.2988 106.219 83.8561 107.058 85.9375 107.058C87.9889 107.058 89.5088 106.264 90.4971 104.677C91.5003 103.09 92.0244 100.589 92.0693 97.1748V90.3691Z" fill="#131B23"/>
<defs>
<filter id="filter0_d" x="0" y="0" width="146" height="188" filterUnits="userSpaceOnUse" color-interpolation-filters="sRGB">
<feFlood flood-opacity="0" result="BackgroundImageFix"/>
<feColorMatrix in="SourceAlpha" type="matrix" values="0 0 0 0 0 0 0 0 0 0 0 0 0 0 0 0 0 0 127 0"/>
<feMorphology radius="1" operator="dilate" in="SourceAlpha" result="effect1_dropShadow"/>
<feOffset/>
<feGaussianBlur stdDeviation="3"/>
<feColorMatrix type="matrix" values="0 0 0 0 0.00392157 0 0 0 0 0.00392157 0 0 0 0 0.00392157 0 0 0 0.05 0"/>
<feBlend mode="normal" in2="BackgroundImageFix" result="effect1_dropShadow"/>
<feBlend mode="normal" in="SourceGraphic" in2="effect1_dropShadow" result="shape"/>
</filter>
</defs>
</svg>
