<svg width="146" height="188" viewBox="0 0 146 188" fill="none" xmlns="http://www.w3.org/2000/svg">
<g filter="url(#filter0_d)">
<rect x="7" y="7" width="132" height="174" rx="4" fill="#4B9AE8"/>
</g>
<path d="M68.8447 91.627H71.9668C73.9284 91.597 75.4707 91.0804 76.5938 90.0771C77.7168 89.0739 78.2783 87.7188 78.2783 86.0117C78.2783 82.1784 76.3691 80.2617 72.5508 80.2617C70.7539 80.2617 69.3164 80.7783 68.2383 81.8115C67.1751 82.8298 66.6436 84.1849 66.6436 85.877H62.4883C62.4883 83.2865 63.4316 81.1377 65.3184 79.4307C67.2201 77.7087 69.6309 76.8477 72.5508 76.8477C75.6354 76.8477 78.0537 77.6637 79.8057 79.2959C81.5576 80.9281 82.4336 83.1966 82.4336 86.1016C82.4336 87.5241 81.9694 88.9017 81.041 90.2344C80.1276 91.5671 78.8773 92.5628 77.29 93.2217C79.0869 93.7907 80.472 94.734 81.4453 96.0518C82.4336 97.3695 82.9277 98.9792 82.9277 100.881C82.9277 103.816 81.9694 106.144 80.0527 107.866C78.1361 109.588 75.6429 110.449 72.5732 110.449C69.5036 110.449 67.0029 109.618 65.0713 107.956C63.1546 106.294 62.1963 104.1 62.1963 101.375H66.374C66.374 103.097 66.9355 104.475 68.0586 105.508C69.1816 106.541 70.6865 107.058 72.5732 107.058C74.5798 107.058 76.1146 106.534 77.1777 105.485C78.2409 104.437 78.7725 102.932 78.7725 100.971C78.7725 99.069 78.1885 97.609 77.0205 96.5908C75.8525 95.5726 74.168 95.0485 71.9668 95.0186H68.8447V91.627Z" fill="white"/>
<defs>
<filter id="filter0_d" x="0" y="0" width="146" height="188" filterUnits="userSpaceOnUse" color-interpolation-filters="sRGB">
<feFlood flood-opacity="0" result="BackgroundImageFix"/>
<feColorMatrix in="SourceAlpha" type="matrix" values="0 0 0 0 0 0 0 0 0 0 0 0 0 0 0 0 0 0 127 0"/>
<feMorphology radius="1" operator="dilate" in="SourceAlpha" result="effect1_dropShadow"/>
<feOffset/>
<feGaussianBlur stdDeviation="3"/>
<feColorMatrix type="matrix" values="0 0 0 0 0.00392157 0 0 0 0 0.00392157 0 0 0 0 0.00392157 0 0 0 0.05 0"/>
<feBlend mode="normal" in2="BackgroundImageFix" result="effect1_dropShadow"/>
<feBlend mode="normal" in="SourceGraphic" in2="effect1_dropShadow" result="shape"/>
</filter>
</defs>
</svg>
