<svg width="146" height="188" viewBox="0 0 146 188" fill="none" xmlns="http://www.w3.org/2000/svg">
<g filter="url(#filter0_d)">
<rect x="7" y="7" width="132" height="174" rx="4" fill="white"/>
</g>
<path d="M64.3301 96.0518C64.3301 100.918 63.499 104.535 61.8369 106.9C60.1748 109.266 57.5768 110.449 54.043 110.449C50.554 110.449 47.971 109.296 46.2939 106.99C44.6169 104.669 43.7484 101.21 43.6885 96.6133V91.0654C43.6885 86.2588 44.5195 82.6875 46.1816 80.3516C47.8438 78.0156 50.4492 76.8477 53.998 76.8477C57.5169 76.8477 60.1074 77.9782 61.7695 80.2393C63.4316 82.4854 64.2852 85.9593 64.3301 90.6611V96.0518ZM60.1748 90.3691C60.1748 86.8503 59.6807 84.2897 58.6924 82.6875C57.7041 81.0703 56.1393 80.2617 53.998 80.2617C51.8717 80.2617 50.3219 81.0628 49.3486 82.665C48.3753 84.2673 47.8737 86.7305 47.8438 90.0547V96.7031C47.8438 100.237 48.3529 102.85 49.3711 104.542C50.4043 106.219 51.9616 107.058 54.043 107.058C56.0944 107.058 57.6143 106.264 58.6025 104.677C59.6058 103.09 60.1299 100.589 60.1748 97.1748V90.3691ZM70.1699 107.821C70.1699 107.103 70.3796 106.504 70.7988 106.024C71.2331 105.545 71.877 105.306 72.7305 105.306C73.584 105.306 74.2279 105.545 74.6621 106.024C75.1113 106.504 75.3359 107.103 75.3359 107.821C75.3359 108.51 75.1113 109.087 74.6621 109.551C74.2279 110.015 73.584 110.247 72.7305 110.247C71.877 110.247 71.2331 110.015 70.7988 109.551C70.3796 109.087 70.1699 108.51 70.1699 107.821ZM83.6914 93.6035L85.3535 77.2969H102.109V81.1377H88.8799L87.8916 90.0547C89.4938 89.1113 91.3132 88.6396 93.3496 88.6396C96.3294 88.6396 98.6953 89.6279 100.447 91.6045C102.199 93.5661 103.075 96.224 103.075 99.5781C103.075 102.947 102.162 105.605 100.335 107.552C98.5231 109.483 95.985 110.449 92.7207 110.449C89.8307 110.449 87.4723 109.648 85.6455 108.046C83.8187 106.444 82.778 104.228 82.5234 101.397H86.4541C86.7087 103.269 87.375 104.684 88.4531 105.643C89.5312 106.586 90.9538 107.058 92.7207 107.058C94.6523 107.058 96.1647 106.399 97.2578 105.081C98.3659 103.763 98.9199 101.944 98.9199 99.623C98.9199 97.4368 98.321 95.6849 97.123 94.3672C95.9401 93.0345 94.3604 92.3682 92.3838 92.3682C90.5719 92.3682 89.1494 92.765 88.1162 93.5586L87.0156 94.457L83.6914 93.6035Z" fill="#131B23"/>
<defs>
<filter id="filter0_d" x="0" y="0" width="146" height="188" filterUnits="userSpaceOnUse" color-interpolation-filters="sRGB">
<feFlood flood-opacity="0" result="BackgroundImageFix"/>
<feColorMatrix in="SourceAlpha" type="matrix" values="0 0 0 0 0 0 0 0 0 0 0 0 0 0 0 0 0 0 127 0"/>
<feMorphology radius="1" operator="dilate" in="SourceAlpha" result="effect1_dropShadow"/>
<feOffset/>
<feGaussianBlur stdDeviation="3"/>
<feColorMatrix type="matrix" values="0 0 0 0 0.00392157 0 0 0 0 0.00392157 0 0 0 0 0.00392157 0 0 0 0.05 0"/>
<feBlend mode="normal" in2="BackgroundImageFix" result="effect1_dropShadow"/>
<feBlend mode="normal" in="SourceGraphic" in2="effect1_dropShadow" result="shape"/>
</filter>
</defs>
</svg>
