<svg width="146" height="188" viewBox="0 0 146 188" fill="none" xmlns="http://www.w3.org/2000/svg">
<g filter="url(#filter0_d)">
<rect x="7" y="7" width="132" height="174" rx="4" fill="white"/>
</g>
<path d="M84.2305 110H62.8027V107.013L74.123 94.4346C75.8001 92.5329 76.9531 90.9906 77.582 89.8076C78.2259 88.6097 78.5479 87.3743 78.5479 86.1016C78.5479 84.3945 78.0312 82.9945 76.998 81.9014C75.9648 80.8083 74.5872 80.2617 72.8652 80.2617C70.7988 80.2617 69.1891 80.8532 68.0361 82.0361C66.8981 83.2041 66.3291 84.8363 66.3291 86.9326H62.1738C62.1738 83.9229 63.1396 81.4896 65.0713 79.6328C67.0179 77.776 69.6159 76.8477 72.8652 76.8477C75.9049 76.8477 78.3083 77.6488 80.0752 79.251C81.8421 80.8382 82.7256 82.957 82.7256 85.6074C82.7256 88.8268 80.6742 92.6602 76.5713 97.1074L67.8115 106.608H84.2305V110Z" fill="#131B23"/>
<defs>
<filter id="filter0_d" x="0" y="0" width="146" height="188" filterUnits="userSpaceOnUse" color-interpolation-filters="sRGB">
<feFlood flood-opacity="0" result="BackgroundImageFix"/>
<feColorMatrix in="SourceAlpha" type="matrix" values="0 0 0 0 0 0 0 0 0 0 0 0 0 0 0 0 0 0 127 0"/>
<feMorphology radius="1" operator="dilate" in="SourceAlpha" result="effect1_dropShadow"/>
<feOffset/>
<feGaussianBlur stdDeviation="3"/>
<feColorMatrix type="matrix" values="0 0 0 0 0.00392157 0 0 0 0 0.00392157 0 0 0 0 0.00392157 0 0 0 0.05 0"/>
<feBlend mode="normal" in2="BackgroundImageFix" result="effect1_dropShadow"/>
<feBlend mode="normal" in="SourceGraphic" in2="effect1_dropShadow" result="shape"/>
</filter>
</defs>
</svg>
