<svg width="146" height="188" viewBox="0 0 146 188" fill="none" xmlns="http://www.w3.org/2000/svg">
<g filter="url(#filter0_d)">
<rect x="7" y="7" width="132" height="174" rx="4" fill="white"/>
</g>
<path d="M70.1475 100.791C70.1774 99.0091 70.3796 97.6016 70.7539 96.5684C71.1283 95.5352 71.8919 94.3896 73.0449 93.1318L75.9873 90.0996C77.2451 88.6771 77.874 87.1497 77.874 85.5176C77.874 83.9453 77.4622 82.7174 76.6387 81.834C75.8151 80.9355 74.6172 80.4863 73.0449 80.4863C71.5176 80.4863 70.2897 80.8906 69.3613 81.6992C68.4329 82.5078 67.9688 83.5934 67.9688 84.9561H63.8135C63.8434 82.5303 64.7044 80.5762 66.3965 79.0938C68.1035 77.5964 70.3197 76.8477 73.0449 76.8477C75.875 76.8477 78.0762 77.6113 79.6484 79.1387C81.2357 80.651 82.0293 82.7324 82.0293 85.3828C82.0293 88.0033 80.8164 90.5863 78.3906 93.1318L75.9424 95.5576C74.8493 96.7705 74.3027 98.515 74.3027 100.791H70.1475ZM69.9678 107.911C69.9678 107.237 70.1699 106.676 70.5742 106.227C70.9935 105.762 71.6074 105.53 72.416 105.53C73.2246 105.53 73.8385 105.762 74.2578 106.227C74.6771 106.676 74.8867 107.237 74.8867 107.911C74.8867 108.585 74.6771 109.146 74.2578 109.596C73.8385 110.03 73.2246 110.247 72.416 110.247C71.6074 110.247 70.9935 110.03 70.5742 109.596C70.1699 109.146 69.9678 108.585 69.9678 107.911Z" fill="#131B23"/>
<defs>
<filter id="filter0_d" x="0" y="0" width="146" height="188" filterUnits="userSpaceOnUse" color-interpolation-filters="sRGB">
<feFlood flood-opacity="0" result="BackgroundImageFix"/>
<feColorMatrix in="SourceAlpha" type="matrix" values="0 0 0 0 0 0 0 0 0 0 0 0 0 0 0 0 0 0 127 0"/>
<feMorphology radius="1" operator="dilate" in="SourceAlpha" result="effect1_dropShadow"/>
<feOffset/>
<feGaussianBlur stdDeviation="3"/>
<feColorMatrix type="matrix" values="0 0 0 0 0.00392157 0 0 0 0 0.00392157 0 0 0 0 0.00392157 0 0 0 0.05 0"/>
<feBlend mode="normal" in2="BackgroundImageFix" result="effect1_dropShadow"/>
<feBlend mode="normal" in="SourceGraphic" in2="effect1_dropShadow" result="shape"/>
</filter>
</defs>
</svg>
