<svg width="146" height="188" viewBox="0 0 146 188" fill="none" xmlns="http://www.w3.org/2000/svg">
<g filter="url(#filter0_d)">
<rect x="7" y="7" width="132" height="174" rx="4" fill="white"/>
</g>
<path d="M82.6357 85.832C82.6357 87.4642 82.2015 88.9167 81.333 90.1895C80.4795 91.4622 79.319 92.458 77.8516 93.1768C79.5586 93.9105 80.9062 94.9811 81.8945 96.3887C82.8978 97.7962 83.3994 99.391 83.3994 101.173C83.3994 104.003 82.4411 106.257 80.5244 107.934C78.6227 109.611 76.1146 110.449 73 110.449C69.8555 110.449 67.3324 109.611 65.4307 107.934C63.5439 106.242 62.6006 103.988 62.6006 101.173C62.6006 99.4059 63.0798 97.8112 64.0381 96.3887C65.0114 94.9661 66.3516 93.888 68.0586 93.1543C66.6061 92.4355 65.4606 91.4398 64.6221 90.167C63.7835 88.8942 63.3643 87.4492 63.3643 85.832C63.3643 83.0768 64.2477 80.8906 66.0146 79.2734C67.7816 77.6562 70.11 76.8477 73 76.8477C75.875 76.8477 78.196 77.6562 79.9629 79.2734C81.7448 80.8906 82.6357 83.0768 82.6357 85.832ZM79.2441 101.083C79.2441 99.2562 78.6602 97.7663 77.4922 96.6133C76.3392 95.4603 74.8268 94.8838 72.9551 94.8838C71.0833 94.8838 69.5785 95.4528 68.4404 96.5908C67.3174 97.7288 66.7559 99.2262 66.7559 101.083C66.7559 102.94 67.3024 104.4 68.3955 105.463C69.5036 106.526 71.0384 107.058 73 107.058C74.9466 107.058 76.474 106.526 77.582 105.463C78.6901 104.385 79.2441 102.925 79.2441 101.083ZM73 80.2617C71.3678 80.2617 70.0426 80.7708 69.0244 81.7891C68.0212 82.7923 67.5195 84.1624 67.5195 85.8994C67.5195 87.5615 68.0137 88.9092 69.002 89.9424C70.0052 90.9606 71.3379 91.4697 73 91.4697C74.6621 91.4697 75.9873 90.9606 76.9756 89.9424C77.9788 88.9092 78.4805 87.5615 78.4805 85.8994C78.4805 84.2373 77.9639 82.8822 76.9307 81.834C75.8975 80.7858 74.5872 80.2617 73 80.2617Z" fill="#131B23"/>
<defs>
<filter id="filter0_d" x="0" y="0" width="146" height="188" filterUnits="userSpaceOnUse" color-interpolation-filters="sRGB">
<feFlood flood-opacity="0" result="BackgroundImageFix"/>
<feColorMatrix in="SourceAlpha" type="matrix" values="0 0 0 0 0 0 0 0 0 0 0 0 0 0 0 0 0 0 127 0"/>
<feMorphology radius="1" operator="dilate" in="SourceAlpha" result="effect1_dropShadow"/>
<feOffset/>
<feGaussianBlur stdDeviation="3"/>
<feColorMatrix type="matrix" values="0 0 0 0 0.00392157 0 0 0 0 0.00392157 0 0 0 0 0.00392157 0 0 0 0.05 0"/>
<feBlend mode="normal" in2="BackgroundImageFix" result="effect1_dropShadow"/>
<feBlend mode="normal" in="SourceGraphic" in2="effect1_dropShadow" result="shape"/>
</filter>
</defs>
</svg>
